<?xml version="1.0" standalone="no"?>
<!DOCTYPE svg PUBLIC "-//W3C//DTD SVG 20010904//EN"
 "http://www.w3.org/TR/2001/REC-SVG-20010904/DTD/svg10.dtd">
<svg version="1.0" xmlns="http://www.w3.org/2000/svg"
 width="512.000000pt" height="512.000000pt" viewBox="0 0 512.000000 512.000000"
 preserveAspectRatio="xMidYMid meet">
<metadata>
Created by potrace 1.14, written by Peter Selinger 2001-2017
</metadata>
<g transform="translate(0.000000,512.000000) scale(0.100000,-0.100000)"
fill="#000000" stroke="none">
<path d="M3484 5096 c-26 -21 -28 -30 -30 -102 -1 -44 -3 -81 -3 -84 -1 -2
-20 14 -43 37 -54 51 -81 65 -112 57 -48 -12 -76 -70 -52 -110 6 -11 47 -53
91 -93 44 -41 89 -82 100 -93 19 -17 19 -34 20 -527 0 -281 -3 -507 -6 -503
-3 4 -17 23 -30 43 -120 180 -309 295 -518 315 l-70 6 5 -57 c18 -242 168
-463 389 -570 50 -24 120 -50 157 -57 54 -10 67 -16 70 -33 3 -17 2 -849 -1
-865 -1 -3 -236 -5 -523 -5 -288 1 -535 -2 -549 -7 -56 -19 -71 -49 -74 -145
-2 -48 -4 -94 -4 -100 -1 -10 -73 -13 -326 -13 l-324 0 8 22 c5 13 52 48 117
87 151 92 254 172 361 284 164 172 297 402 360 622 32 112 44 159 48 189 2 17
6 40 9 51 47 225 34 622 -30 908 -18 78 -15 78 -124 20 -188 -101 -307 -187
-440 -322 -111 -111 -167 -183 -237 -301 -49 -84 -61 -107 -103 -205 l-22 -50
-29 97 c-121 404 -331 714 -663 972 -46 36 -88 66 -94 66 -6 0 -12 4 -14 8
-10 24 -333 200 -345 188 -7 -7 -31 -110 -39 -166 -3 -25 -8 -48 -10 -51 -2
-4 -6 -31 -10 -60 -3 -30 -8 -57 -10 -60 -8 -14 -19 -228 -19 -379 0 -156 10
-343 19 -372 3 -7 7 -29 9 -48 34 -258 153 -573 302 -794 171 -256 392 -454
689 -618 49 -26 82 -52 87 -66 l8 -22 -510 1 -511 1 -32 -31 -31 -31 -3 -238
c-4 -257 2 -301 43 -328 15 -10 53 -18 92 -20 38 -2 71 -3 75 -4 3 0 9 -24 13
-52 4 -29 8 -64 10 -78 2 -14 7 -54 10 -90 4 -35 8 -67 10 -70 1 -3 6 -41 10
-84 4 -43 8 -87 10 -97 2 -10 6 -42 9 -71 4 -29 8 -62 10 -73 2 -11 7 -51 11
-90 10 -99 14 -131 25 -210 5 -38 12 -94 15 -123 6 -57 21 -163 29 -200 11
-49 72 -146 120 -189 28 -25 80 -60 116 -77 l65 -31 478 -3 c419 -3 485 -1
535 13 65 19 130 58 185 111 20 20 37 35 38 33 0 -2 2 -22 3 -45 4 -53 20 -80
56 -99 26 -13 166 -15 1185 -13 l1155 3 27 28 28 27 3 1143 c2 815 0 1153 -8
1180 -21 73 -14 72 -613 72 l-527 -1 0 213 c0 163 3 213 13 214 6 0 19 2 27 4
8 1 30 5 49 8 114 19 281 100 384 187 139 117 245 297 283 481 2 13 7 56 10
95 l6 72 -33 -4 c-166 -17 -226 -32 -336 -85 -144 -69 -290 -202 -365 -335
-16 -30 -32 -54 -34 -54 -2 0 -4 121 -4 269 l0 269 48 7 c182 26 381 133 507
273 122 136 214 362 211 517 l-1 49 -50 -3 c-276 -16 -543 -184 -683 -431
l-32 -55 0 463 0 463 -25 24 c-30 31 -66 32 -101 1z"/>
</g>
</svg>
